<?xml version="1.0" encoding="utf-8"?>
<!-- Generator: Adobe Illustrator 19.0.0, SVG Export Plug-In . SVG Version: 6.00 Build 0)  -->
<svg version="1.1" id="Layer_1" xmlns="http://www.w3.org/2000/svg" xmlns:xlink="http://www.w3.org/1999/xlink" x="0px" y="0px"
	 viewBox="0 0 116.9 137.1" width="116.9px" height="137.1px" style="enable-background:new 0 0 116.9 137.1;" xml:space="preserve">
<style type="text/css">
	.st0{fill:#CEE0FC;}
</style>
<path id="XMLID_2398_" class="st0" d="M116.9,47.5C116.9,21.3,95.6,0,69.3,0C43.1,0,21.8,21.3,21.8,47.5c0,12,4.4,22.9,11.8,31.3
	l0,0c0.2,0.2,0.4,0.5,0.7,0.7l20.3,23.2l2.3,16l2.3,18.3h20l4.6-34.4l20.6-23c0.3-0.3,0.5-0.6,0.8-0.9l0-0.1h0
	C112.4,70.5,116.9,59.5,116.9,47.5z M80.1,119.1h-22l-2-16h26L80.1,119.1z"/>
<g id="XMLID_2364_">
	<circle id="XMLID_2397_" class="st0" cx="11.8" cy="103.2" r="4"/>
</g>
<path id="XMLID_2361_" class="st0" d="M14.8,108.7c-0.9,0.5-1.9,0.8-3,0.8c-1.1,0-2.1-0.3-3-0.8C8.5,109,0,117.5,0,117.5l2.2,2.2
	l4.9-4.6v22h4l0-12h2l0,12h3.9l0-22l4.3,4.6l2.2-2.2C23.6,117.5,15.1,109,14.8,108.7z"/>
</svg>
