<?xml version="1.0" encoding="utf-8"?>
<!-- Generator: Adobe Illustrator 19.0.0, SVG Export Plug-In . SVG Version: 6.00 Build 0)  -->
<svg version="1.1" id="Layer_1" xmlns="http://www.w3.org/2000/svg" xmlns:xlink="http://www.w3.org/1999/xlink" x="0px" y="0px"
	 viewBox="0 0 100 108.6" width="100px" height="108.6px" style="enable-background:new 0 0 100 108.6;" xml:space="preserve">
<style type="text/css">
	.st0{fill:#3E82F7;}
	.st1{fill:#FFBF1F;}
	.st2{fill:#15A15F;}
	.st3{fill:#DC493D;}
	.st4{fill:#A0C1F8;}
</style>
<path id="XMLID_5198_" class="st0" d="M44.7,46.6c0,1.2-0.8,2-2,2c-1.2,0-2-0.8-2-2s0.8-2,2-2C43.9,44.6,44.7,45.4,44.7,46.6z"/>
<path id="XMLID_5191_" class="st0" d="M51.2,60.4c3.7,0,7.5-3.1,7.5-6.8h-15C43.7,57.3,47.5,60.4,51.2,60.4z"/>
<rect id="XMLID_5189_" x="0.4" y="48.3" transform="matrix(0.7071 -0.7071 0.7071 0.7071 -34.4717 15.4502)" class="st0" width="2" height="2"/>
<rect id="XMLID_5188_" x="92.3" y="26.6" transform="matrix(0.7071 -0.7071 0.7071 0.7071 7.803 74.088)" class="st0" width="2" height="2"/>
<rect id="XMLID_5186_" x="5.8" y="67.9" transform="matrix(0.7071 -0.7071 0.7071 0.7071 -47.1649 25.9951)" class="st0" width="4" height="4"/>
<rect id="XMLID_5185_" x="74.1" y="6.2" transform="matrix(0.8295 0.5585 -0.5585 0.8295 17.6338 -40.5842)" class="st1" width="2.4" height="4.8"/>
<rect id="XMLID_5184_" x="40.6" y="14.1" transform="matrix(-0.8295 0.5585 -0.5585 -0.8295 85.8281 7.0126)" class="st1" width="2.5" height="4.9"/>
<rect id="XMLID_5183_" x="26.6" y="79.7" transform="matrix(-0.7759 -0.6308 0.6308 -0.7759 -2.3927 163.4294)" class="st1" width="2.5" height="4.9"/>
<rect id="XMLID_5182_" x="6.6" y="37.1" transform="matrix(0.8295 0.5585 -0.5585 0.8295 23.3663 2.3731)" class="st1" width="2.4" height="4.8"/>
<rect id="XMLID_5181_" x="90.4" y="46.5" transform="matrix(0.9727 -0.2319 0.2319 0.9727 -8.8418 22.5761)" class="st1" width="2.4" height="4.8"/>
<circle id="XMLID_5180_" class="st2" cx="64.5" cy="15.9" r="2"/>
<circle id="XMLID_5179_" class="st2" cx="27.8" cy="11.1" r="1"/>
<circle id="XMLID_5178_" class="st2" cx="18" cy="21.3" r="2"/>
<circle id="XMLID_5176_" class="st2" cx="67.5" cy="82.1" r="2"/>
<rect id="XMLID_5175_" x="78.3" y="84.6" transform="matrix(0.7071 -0.7071 0.7071 0.7071 -37.7225 82.116)" class="st0" width="4" height="4"/>
<path id="XMLID_5173_" class="st3" d="M54.5,4.6c-0.3-0.8-0.9-1.4-1.7-1.8l0,0c-0.7-0.3-1-1.2-0.7-1.9L50.3,0
	c-0.8,1.7-0.1,3.6,1.6,4.5l0,0c0.3,0.2,0.6,0.4,0.7,0.8c0.1,0.4,0.1,0.7,0,1.1l1.8,0.8C54.8,6.3,54.8,5.4,54.5,4.6z"/>
<path id="XMLID_5172_" class="st3" d="M82.7,22.3c0.4-0.7,0.5-1.6,0.3-2.4l0,0c-0.2-0.8,0.3-1.5,1-1.7l-0.5-1.9
	c-1.8,0.5-2.9,2.3-2.5,4l0,0c0.1,0.4,0.1,0.7-0.1,1.1c-0.2,0.3-0.5,0.6-0.9,0.7l0.5,1.9C81.5,23.6,82.2,23.1,82.7,22.3z"/>
<path id="XMLID_5171_" class="st3" d="M17.2,84.9c-0.2-0.8-0.8-1.5-1.5-2l0,0c-0.7-0.4-0.9-1.3-0.5-1.9l-1.7-1
	c-0.9,1.6-0.4,3.6,1.1,4.6l0,0c0.3,0.2,0.6,0.5,0.7,0.9c0.1,0.4,0,0.7-0.1,1.1l1.7,1C17.3,86.7,17.4,85.8,17.2,84.9z"/>
<path id="XMLID_5170_" class="st3" d="M11,51.5c-0.8,0.3-1.4,1-1.7,1.8l0,0C9,54,8.1,54.4,7.4,54.1l-0.8,1.9
	c1.7,0.7,3.6-0.1,4.4-1.8l0,0c0.1-0.3,0.4-0.6,0.8-0.8c0.3-0.2,0.7-0.2,1.1,0l0.7-1.9C12.8,51.2,11.8,51.2,11,51.5z"/>
<path id="XMLID_3778_" class="st3" d="M99,59.5c-0.6-0.6-1.4-0.9-2.3-1l0,0c-0.8,0-1.4-0.6-1.4-1.4l-2,0c0,1.8,1.4,3.3,3.3,3.4l0,0
	c0.4,0,0.7,0.1,1,0.4c0.3,0.3,0.4,0.6,0.4,1l2,0C100,61,99.7,60.1,99,59.5z"/>
<rect id="XMLID_3777_" x="10.4" y="14.1" transform="matrix(-0.7061 -0.7081 0.7081 -0.7061 8.1692 36.6048)" class="st1" width="2.5" height="4.9"/>
<rect id="XMLID_3775_" x="35.5" y="4.9" transform="matrix(0.7071 -0.7071 0.7071 0.7071 6.5054 27.5457)" class="st0" width="2" height="2"/>
<circle id="XMLID_3770_" class="st2" cx="37.9" cy="88.3" r="2"/>
<circle id="XMLID_3122_" class="st2" cx="92" cy="70.6" r="2"/>
<rect id="XMLID_5412_" x="52.8" y="16.3" transform="matrix(0.7071 -0.7071 0.7071 0.7071 3.4925 43.1003)" class="st0" width="2" height="2"/>
<path id="XMLID_1418_" class="st4" d="M71.7,31.6v-4h2c0-1.4-1.6-3-3-3s-3,1.6-3,3h2v4h-17v-4h2c0-1.4-1.4-3-2.8-3s-3.2,1.6-3.2,3h2
	v4l-16,0v-4l2,0c0-1.4-1.6-3-3-3c-1.4,0-3,1.6-3,3l2,0v4l-14,0v42l27,0v4h3l0.1,31h5.9v-31h3v-4h27v-42L71.7,31.6z M80.7,69.6h-58
	v-34h58V69.6z"/>
<path id="XMLID_678_" class="st0" d="M61.7,46.6c0,1.2-0.8,2-2,2c-1.2,0-2-0.8-2-2s0.8-2,2-2C60.9,44.6,61.7,45.4,61.7,46.6z"/>
</svg>
