<?xml version="1.0" encoding="utf-8"?>
<!-- Generator: Adobe Illustrator 19.0.0, SVG Export Plug-In . SVG Version: 6.00 Build 0)  -->
<svg version="1.1" id="Layer_1" xmlns="http://www.w3.org/2000/svg" xmlns:xlink="http://www.w3.org/1999/xlink" x="0px" y="0px"
	 viewBox="0 0 66 84" width="66px" height="84px" style="enable-background:new 0 0 66 84;" xml:space="preserve">
<style type="text/css">
	.st0{fill:#CEE0FC;}
</style>
<path id="XMLID_2241_" class="st0" d="M53,7V3h2c0-1.4-1.6-3-3-3s-3,1.6-3,3h2v4H34V3h2c0-1.4-1.4-3-2.8-3S30,1.6,30,3h2v4L16,7V3
	l2,0c0-1.4-1.6-3-3-3c-1.4,0-3,1.6-3,3l2,0v4L0,7v42l27,0v4h3l0.1,31H36V53h3v-4h27V7L53,7z M62,45H4V11h58V45z"/>
<g id="XMLID_2238_">
	<path id="XMLID_36_" class="st0" d="M43,26.7c-0.1,2-0.6,3.6-1.5,4.8c-0.9,1.2-2.1,1.8-3.7,1.8c-0.7,0-1.3-0.1-1.8-0.4
		c-0.5-0.3-0.9-0.7-1.1-1.2c-0.8,1.1-1.8,1.6-3.1,1.6c-1.1,0-2-0.5-2.7-1.4c-0.6-1-0.9-2.2-0.7-3.8c0.1-1.3,0.5-2.4,1-3.5
		c0.5-1,1.2-1.8,2-2.3c0.8-0.5,1.6-0.8,2.5-0.8c1.1,0,2.1,0.3,2.9,0.8l0.7,0.5L37,29.4c-0.1,0.6,0,1.1,0.2,1.4
		c0.2,0.3,0.6,0.5,1,0.5c0.7,0,1.3-0.4,1.8-1.3c0.5-0.8,0.8-2,0.8-3.3c0.1-2.7-0.4-4.8-1.7-6.3c-1.2-1.5-3.1-2.2-5.5-2.2
		c-1.5,0-2.9,0.4-4.1,1.2c-1.2,0.8-2.1,1.9-2.8,3.3c-0.7,1.4-1.1,3-1.2,4.9c-0.1,2.8,0.4,4.9,1.7,6.5c1.2,1.5,3.1,2.3,5.6,2.3
		c0.7,0,1.3-0.1,2.1-0.2s1.3-0.3,1.8-0.6l0.4,1.8c-0.5,0.3-1.1,0.6-1.9,0.8c-0.8,0.2-1.6,0.3-2.5,0.3c-2.1,0-3.8-0.4-5.3-1.3
		c-1.5-0.8-2.6-2.1-3.3-3.7c-0.7-1.6-1-3.6-0.9-5.8c0.1-2.2,0.6-4.1,1.5-5.8s2.1-3,3.7-4c1.5-0.9,3.3-1.4,5.2-1.4
		c2,0,3.7,0.4,5.1,1.3s2.5,2.1,3.2,3.6S43.1,24.6,43,26.7z M31.2,27.9c-0.1,1,0,1.8,0.3,2.4c0.3,0.5,0.7,0.8,1.3,0.8
		c0.4,0,0.8-0.2,1.1-0.5c0.3-0.3,0.6-0.8,0.9-1.5l0.5-5.6c-0.3-0.1-0.6-0.2-0.9-0.2c-0.9,0-1.6,0.4-2.1,1.2
		C31.6,25.3,31.3,26.5,31.2,27.9z"/>
</g>
</svg>
