<?xml version="1.0" encoding="utf-8"?>
<!-- Generator: Adobe Illustrator 19.0.0, SVG Export Plug-In . SVG Version: 6.00 Build 0)  -->
<svg version="1.1" id="Layer_1" xmlns="http://www.w3.org/2000/svg" xmlns:xlink="http://www.w3.org/1999/xlink" x="0px" y="0px"
	 viewBox="0 0 23.7 39.8" width="23.7px" height="39.8px" style="enable-background:new 0 0 23.7 39.8;" xml:space="preserve">
<style type="text/css">
	.st0{fill:#CEE0FC;}
</style>
<g id="XMLID_99_">
	<circle id="XMLID_103_" class="st0" cx="10.6" cy="4" r="4"/>
</g>
<path id="XMLID_96_" class="st0" d="M14.7,11.1c-0.3-0.3-0.5-0.6-0.9-0.8c-1,0.5-2.1,0.8-3.3,0.8c-1.7,0-3.3-0.6-4.5-1.7
	C5.8,9.3,5.6,9.2,5.5,9C4.1,7.7,3.3,6.1,3.3,4.3L0,4.4c0.1,2.7,1.2,5.2,3.2,7.1c0.7,0.6,2,1.3,2.8,1.7l0.1,26.7h3.8l0.1-12h2v12h3.9
	l0-23.1l5.7,5.6l2.2-2.2L14.7,11.1z"/>
</svg>
