<?xml version="1.0" encoding="utf-8"?>
<!-- Generator: Adobe Illustrator 19.0.0, SVG Export Plug-In . SVG Version: 6.00 Build 0)  -->
<svg version="1.1" id="Layer_1" xmlns="http://www.w3.org/2000/svg" xmlns:xlink="http://www.w3.org/1999/xlink" x="0px" y="0px"
	 viewBox="0 0 55.9 48" width="55.9px" height="48px" style="enable-background:new 0 0 55.9 48;" xml:space="preserve">
<style type="text/css">
	.st0{fill:#A0C1F8;}
	.st1{fill:#3E82F7;}
	.st2{fill:#CEE0FC;}
</style>
<g id="XMLID_271_">
	<g id="XMLID_80_">
		<path id="XMLID_81_" class="st0" d="M2.9,0l0,27.2v1.3l0,19.6h50l-0.1-19.6v-1.3L52.9,0H2.9z M26.9,42h-18V30h18V42z"/>
	</g>
</g>
<path id="XMLID_4462_" class="st1" d="M52.9,5h-50L0,20.9v6L55.9,27v-6.9L52.9,5z"/>
<polygon id="XMLID_1957_" class="st2" points="12.9,5 10.9,21.1 10.9,27 21.9,27 21.9,21.1 22.9,5 "/>
<polygon id="XMLID_1962_" class="st2" points="42.9,5 32.9,5 33.9,21.1 33.9,27 44.9,27 44.9,21.1 "/>
<rect id="XMLID_206_" x="33.9" y="30" class="st1" width="14" height="18"/>
<rect id="XMLID_131_" x="43.9" y="38" class="st2" width="2" height="2"/>
</svg>
